/* XPM */
static char *sts128[] = {
/* columns rows colors chars-per-pixel */
"128 128 21 1 ",
"  c #6CB33E",
". c #75B84A",
"X c #7EBD56",
"o c #88C162",
"O c #8EC56B",
"+ c #91C66E",
"@ c #9ACB7A",
"# c #A3D086",
"$ c #ACD492",
"% c #B6D99F",
"& c #BFDEAB",
"* c #C8E3B7",
"= c #D1E7C3",
"- c #D8EBCC",
"; c #DAECCF",
": c #E3F1DB",
"> c #EDF6E7",
", c #F4F9F0",
"< c #F6FAF3",
"1 c gray100",
"2 c None",
/* pixels */
"22222222222222222222222222222222222222222222222222222222                22222222222222222222222222222222222222222222222222222222",
"22222222222222222222222222222222222222222222222222                            22222222222222222222222222222222222222222222222222",
"2222222222222222222222222222222222222222222222                                   22222222222222222222222222222222222222222222222",
"2222222222222222222222222222222222222222222                                          2222222222222222222222222222222222222222222",
"2222222222222222222222222222222222222222                                               22222222222222222222222222222222222222222",
"22222222222222222222222222222222222222                                                    22222222222222222222222222222222222222",
"222222222222222222222222222222222222                                                        222222222222222222222222222222222222",
"2222222222222222222222222222222222                                                            2222222222222222222222222222222222",
"22222222222222222222222222222222                                                                22222222222222222222 22222222222",
"222222222222222222222222222222                                                                   222222222222222222  22222222222",
"22222222222222222222222222222                                                                      2222222222222222   2222222222",
"222222222222222222222222222                                                                         22222222222222    2222222222",
"22222222222222222222222222                                                                            222222222222    2222222222",
"2222222222222222222222222                                                                              2222222222      222222222",
"22222222222222222222222                                                                                 222222222  @.  222222222",
"2222222222222222222222                                                                                    222222  .>#  222222222",
"222222222222222222222                                                                                      22222  %1=   22222222",
"22222222222222222222                                                                                        222  X<11.  22222222",
"2222222222222222222                                                                                          2   ;111#  22222222",
"222222222222222222                                                                                              $1111=  22222222",
"22222222222222222                                                                                              o<11111   2222222",
"2222222222222222                                                                                              .:111111@  2222222",
"222222222222222                                                                                               *1111111*  2222222",
"22222222222222                                                                                               &11111111<   222222",
"22222222222222                                                                                              #1111111111o  222222",
"2222222222222                                                                                              #11111111111%  222222",
"222222222222                                                                                              #111111111111:  222222",
"22222222222                                                                                              #11111111111111.  22222",
"22222222222                                                                                             *111111111111111@  22222",
"2222222222                                                                                            .=1111111111111111*  22222",
"222222222                                                                                            o:11111111111111111>   2222",
"222222222                                                                                           #<1111111111111111111X  2222",
"22222222                                                                                          .=111111111111111111111#  2222",
"22222222                                                                                         @<1111111111111111111111*  2222",
"2222222                                                                                        X=111111111111111111111111:   222",
"2222222                                                                                       %<11111111111111111111111111.  222",
"222222                                                                                      #>1111111111111111111111111111@  222",
"222222                                                                                    #>111111111111111111111111111111%  222",
"22222                                                                                  .#>11111111111111111111111111111111;  222",
"22222                                                                                o*<1111111111111111111111111111111111<   22",
"2222                                                                              X$:11111111111111111111111111111111111111X  22",
"2222                                                                           +&:11111111111111111111111111111111111111111@  22",
"2222                                                                     .+$&:111111111111111111111111111111111111111111111%  22",
"222                                                          .++++$%%*;;111111111111111111111111111111111111111111111111111=  22",
"222                                               X+%%=;;>11111111111111111111111111111111111111111111111111111111111111111:   2",
"222                                          X#&;111111111111111111111111111111111111111111111111111111111111111111111111111   2",
"22                                        X$:1111111111111111111111111111111111111111111111111111111111111111111111111111111X  2",
"22                                      #:1111111111111111111111111111111111111111111111111111111111111111111111111111111111+  2",
"22                                   .%<111111111111111111111111111111111111111111111111111111111111111111111111111111111111$  2",
"2                                   %<11111111111111111111111111111111111111111111111111111111111111111111111111111111111111%  2",
"2                                 +>1111111111111111111111111111111111111111111111111111111111111111111111111:11111111111111=  2",
"2                               .&11111111111111111111111111111111111111111111111111111111111111111111111111<=11111111111111;   ",
"2                              o>111111111111111111111111111111111111111111111111111111111111111111111111111&<11111111111111:   ",
"2                             #<1111111111111111111111111111111111111111111111111111111111111111111111111111@1111111111111111   ",
"2                            #11111111111111111111111111111111111111111111111111111111111111111111111111111&&1111111111111111   ",
"                            #11111111111111111111111111111111111111111111111111111111111111111111111111111<.>1111111111111111   ",
"                           #111111111111111111111111111111111111111111111111111111111111111111111111111111%+11111111111111111+  ",
"                          @111111111111111111111111111111111111111111111111111111111111111111111111111111> *11111111111111111+  ",
"                         o<111111111111111111111111111111111111111111111111111111111111111111111111111111+.111111111111111111+  ",
"                        .:111111111111111111111111111111111111111111111111111111111111111111111111111111= %111111111111111111+  ",
"                        &111111111111111111111111111111111111111111111111111111111111111111111111111111<. >111111111111111111+  ",
"                       o1111111111111111111111111111111111111111111111111111111111111111111111111111111@ #1111111111111111111+  ",
"                       ;111111111111111111111111111111111111111111111111111111111111111111111111111111&  >1111111111111111111+  ",
"                      #111111111111111111111111111111111111111111111111111111111111111111111111111111:  #11111111111111111111+  ",
"                      >11111111111111111111111111111111111111111111111111111111111111111111111111111<X .<11111111111111111111+  ",
"                     +111111111111111111111111111111111111111111111111111111111111111111111111111111+  %111111111111111111111o  ",
"                     =11111111111111111111111111111111111111111111111111111111111111111111111111111#  X1111111111111111111111   ",
"                    X11111111111111111111111111111111111111111111111111111111111111111111111111111&   ;1111111111111111111111   ",
"                    $1111111111111111111111111111111111111111111111111111111111111111111111111111*   @11111111111111111111111   ",
"                    ;111111111111111111111111111111111111111111111111111111111111111111111111111*   .<1111111111111111111111;   ",
"                    111111111111111111111111111111111111111111111111111111111111111111111111111*    =11111111111111111111111;   ",
"                   +11111111111111111111111111111111111111111111111111111111111111111111111111*    #111111111111111111111111%   ",
"                   %1111111111111111111111111111111111111111111111111111111111111111111111111*    X<111111111111111111111111#  2",
"                   *111111111111111111111111111111111111111111111111111111111111111111111111*     :1111111111111111111111111+  2",
"2                  ;11111111111111111111111111111111111111111111111111111111111111111111111&     *11111111111111111111111111   2",
"2                  >1111111111111111111111111111111111111111111111111111111111111111111111#     #11111111111111111111111111:   2",
"2                  111111111111111111111111111111111111111111111111111111111111111111111<+     +111111111111111111111111111&   2",
"2                  11111111111111111111111111111111111111111111111111111111111111111111:X     o<111111111111111111111111111@   2",
"2                  1111111111111111111111111111111111111111111111111111111111111111111*.     .>1111111111111111111111111111.  22",
"22                 11111111111111111111111111111111111111111111111111111111111111111<#      .:1111111111111111111111111111;   22",
"22                 1111111111111111111111111111111111111111111111111111111111111111:X      .:11111111111111111111111111111$   22",
"22                 <11111111111111111111111111111111111111111111111111111111111111%       .:111111111111111111111111111111X   22",
"222                ;111111111111111111111111111111111111111111111111111111111111:o       .:111111111111111111111111111111=   222",
"222                *1111111111111111111111111111111111111111111111111111111111<$        .:1111111111111111111111111111111#   222",
"222                %111111111111111111111111111111111111111111111111111111111*.        .:1111111111111111111111111111111>    222",
"2222               +1111111111111111111111111111111111111111111111111111111;+         o<11111111111111111111111111111111$   2222",
"2222                <1111111111111111111111111111111111111111111111111111;+          @<11111111111111111111111111111111<.   2222",
"2222                =11111111111111111111111111111111111111111111111111;+           $1111111111111111111111111111111111$    2222",
"22222               @111111111111111111111111111111111111111111111111=+           .*1111111111111111111111111111111111>    22222",
"22222                >11111111111111111111111111111111111111111111<&X            o:11111111111111111111111111111111111+    22222",
"22222                %111111111111111111111111111111111111111111=@              $<11111111111111111111111111111111111&    222222",
"222222               .<11111111111111111111111111111111111111=#.              X;111111111111111111111111111111111111>.    222222",
"222222                #1111111111111111111111111111111111>*@                 $<1111111111111111111111111111111111111o    2222222",
"2222222                =111111111111111111111111111111;$o                  o;11111111111111111111111111111111111111#     2222222",
"2222222                .>1111111111111111111111111:&+                    X*111111111111111111111111111111111111111*     22222222",
"22222222                o<11111111111111111111:&@.                     .%<111111111111111111111111111111111111111*      22222222",
"222222222                o>111111111111111;%+.                       X%<1111111111111111111111111111111111111111*      222222222",
"222222222                 .;111111111>=$o                          o*111111111111111111111111111111111111111111%       222222222",
"2222222222                  #>111;%@X                           .#:111111111111111111111111111111111111111111<@       2222222222",
"2222222222                    +o                              @*11111111111111111111111111111111111111111111;X       22222222222",
"22222222222                                               .#*<11111111111111111111111111111111111111111111<$         22222222222",
"222222222222                                           X#=11111111111111111111111111111111111111111111111&.         222222222222",
"2222222222222         .#*;&+                        o%:11111111111111111111111111111111111111111111111<*X          2222222222222",
"2222222222222        +<11111;.                   @&>111111111111111111111111111111111111111111111111:$.           22222222222222",
"22222222222222      o11111111:                @*<111111111111111111111111111111111111111111111111:&o              22222222222222",
"222222222222222     ;111111111#            #=<11111111111111111111111111111111111111111111111:*#X                222222222222222",
"2222222222222222   X1111111111;         @*<11111111111111111111111111111111111111111111:;&$+                    2222222222222222",
"22222222222222222  +1111111111>      X&;;&%$++++++++++++++++$%%%%%%%%%=;;;;%%%%%%%+++                          22222222222222222",
"222222222222222222 +1111111111:                                                                               222222222222222222",
"2222222222222222222.1111111111=                                                                              2222222222222222222",
"22222222222222222222-111111111+                                                                             22222222222222222222",
"22222222222222222222211111111*                                                                             222222222222222222222",
"2222222222222222222222<11111%                                                                             2222222222222222222222",
"22222222222222222222222O%%#X                                                                             22222222222222222222222",
"222222222222222222222222                                                                               2222222222222222222222222",
"22222222222222222222222222                                                                            22222222222222222222222222",
"222222222222222222222222222                                                                          222222222222222222222222222",
"2222222222222222222222222222                                                                       22222222222222222222222222222",
"222222222222222222222222222222                                                                    222222222222222222222222222222",
"22222222222222222222222222222222                                                                22222222222222222222222222222222",
"222222222222222222222222222222222                                                             2222222222222222222222222222222222",
"22222222222222222222222222222222222                                                         222222222222222222222222222222222222",
"2222222222222222222222222222222222222                                                     22222222222222222222222222222222222222",
"2222222222222222222222222222222222222222                                                2222222222222222222222222222222222222222",
"2222222222222222222222222222222222222222222                                          2222222222222222222222222222222222222222222",
"2222222222222222222222222222222222222222222222                                    2222222222222222222222222222222222222222222222",
"2222222222222222222222222222222222222222222222222                              2222222222222222222222222222222222222222222222222",
"222222222222222222222222222222222222222222222222222222                   2222222222222222222222222222222222222222222222222222222"
};
